<svg width="13" height="13" viewBox="0 0 13 13" fill="none" xmlns="http://www.w3.org/2000/svg">
<path d="M4.57333 12.2867L4 12.6667L2 11.3333L0 12.6667V0H12V4.8C11.58 4.62 11.0933 4.62 10.6667 4.81333V1.33333H1.33333V10.1733L2 9.73333L4 11.0667L4.57333 10.6667V12.2867ZM5.90667 11.3067L10 7.22L11.3533 8.58L7.26667 12.6667H5.90667V11.3067ZM12.4733 7.46L11.82 8.11333L10.46 6.75333L11.1133 6.1L11.12 6.09333L11.1267 6.08667C11.24 5.98 11.4133 5.97333 11.54 6.06C11.56 6.06667 11.58 6.08667 11.5933 6.1L12.4733 6.98C12.6067 7.11333 12.6067 7.33333 12.4733 7.46ZM9.33333 4V2.66667H2.66667V4H9.33333ZM8 6.66667V5.33333H2.66667V6.66667H8Z" fill="#444054"/>
</svg>
