<svg width="16" height="16" viewBox="0 0 16 16" fill="none" xmlns="http://www.w3.org/2000/svg">
<path d="M14.6667 3.66667H6C5.26667 3.66667 4.66667 4.26667 4.66667 5.00001V11C4.66667 11.74 5.26667 12.3333 6 12.3333H14.6667C15.4067 12.3333 16 11.74 16 11V5.00001C16 4.26667 15.4067 3.66667 14.6667 3.66667ZM14.6667 11H6V6.11334L10.3333 8.33334L14.6667 6.11334V11ZM10.3333 7.20667L6 5.00001H14.6667L10.3333 7.20667ZM3.33333 11C3.33333 11.1133 3.35333 11.22 3.36667 11.3333H0.666667C0.298667 11.3333 0 11.0333 0 10.6667C0 10.3 0.298667 10 0.666667 10H3.33333V11ZM2 4.66667H3.36667C3.35333 4.78001 3.33333 4.88667 3.33333 5.00001V6.00001H2C1.63333 6.00001 1.33333 5.70001 1.33333 5.33334C1.33333 4.96667 1.63333 4.66667 2 4.66667ZM0.666667 8.00001C0.666667 7.63334 0.966667 7.33334 1.33333 7.33334H3.33333V8.66667H1.33333C0.966667 8.66667 0.666667 8.36667 0.666667 8.00001Z" fill="#444054"/>
</svg>
