<svg width="14" height="14" viewBox="0 0 14 14" fill="none" xmlns="http://www.w3.org/2000/svg">
<path d="M6.33337 3.66666V4.99999H7.66671V3.66666H6.33337ZM8.33337 10.3333V8.99999H7.66671V6.33333H5.66671V7.66666H6.33337V8.99999H5.66671V10.3333H8.33337ZM13.6667 6.99999C13.6667 10.6667 10.6667 13.6667 7.00004 13.6667C3.33337 13.6667 0.333374 10.6667 0.333374 6.99999C0.333374 3.33333 3.33337 0.333328 7.00004 0.333328C10.6667 0.333328 13.6667 3.33333 13.6667 6.99999ZM12.3334 6.99999C12.3334 4.05333 9.94671 1.66666 7.00004 1.66666C4.05337 1.66666 1.66671 4.05333 1.66671 6.99999C1.66671 9.94666 4.05337 12.3333 7.00004 12.3333C9.94671 12.3333 12.3334 9.94666 12.3334 6.99999Z" fill="#444054"/>
</svg>
